<?xml version="1.0" encoding="UTF-8" standalone="no"?><!DOCTYPE svg PUBLIC "-//W3C//DTD SVG 1.1//EN" "http://www.w3.org/Graphics/SVG/1.1/DTD/svg11.dtd"><svg width="100%" height="100%" viewBox="0 0 123 123" version="1.1" xmlns="http://www.w3.org/2000/svg" xmlns:xlink="http://www.w3.org/1999/xlink" xml:space="preserve" xmlns:serif="http://www.serif.com/" style="fill-rule:evenodd;clip-rule:evenodd;stroke-linecap:round;stroke-linejoin:round;stroke-miterlimit:1.5;"><g id="Layer1"><path d="M2.7,17.722l9.054,-12.136l8.283,-1.926l87.935,0l6.549,4.623l5.297,6.935l1.83,9.246l-1.637,61.737l-1.807,23.746l-113.447,-3.948l-2.057,-22.688l0,-65.59" style="fill:#fff;stroke:#000;stroke-width:1px;"/></g><path d="M22.48,0l77.92,0c6.15,0 11.75,2.53 15.82,6.6c4.11,4.11 6.67,9.8 6.67,16.06l0,77.546c0,6.26 -2.55,11.94 -6.67,16.06c-4.07,4.07 -9.67,6.6 -15.82,6.6l-77.92,0c-6.15,0 -11.75,-2.53 -15.82,-6.6c-4.11,-4.12 -6.66,-9.8 -6.66,-16.06l0,-77.556c0,-6.26 2.55,-11.95 6.66,-16.06c4.07,-4.06 9.67,-6.59 15.82,-6.59Zm-17.94,91.806c0.79,3.18 2.34,6.02 4.44,8.29c3.09,3.33 7.35,5.4 12.05,5.4l80.83,0c0.19,0 0.38,0 0.57,-0.01l1.15,-0.08c4.01,-0.44 7.62,-2.39 10.33,-5.31c2.1,-2.26 3.65,-5.1 4.44,-8.28l0,-69.166c0,-4.85 -2,-9.28 -5.21,-12.49c-3.37,-3.382 -7.955,-5.284 -12.73,-5.28l-77.93,-0c-4.97,0 -9.48,2.02 -12.73,5.28c-3.22,3.22 -5.21,7.64 -5.21,12.49l0,69.156Z" style="fill-rule:nonzero;"/><g transform="matrix(110.883485,0,0,110.883485,98.473351,91.13912)"></g><text x="24.082px" y="91.139px" style="font-family:'Georgia', serif;font-size:110.883px;">A</text></svg>